<svg width="505" height="965" viewBox="0 0 505 965" fill="none" xmlns="http://www.w3.org/2000/svg">
<path d="M-22.1526 913.228C-206.704 1019.8 -442.69 956.558 -549.241 771.961C-655.792 587.365 -592.56 351.323 -408.008 244.746L-73.8474 51.7717C110.704 -54.805 346.69 8.4424 453.241 193.039C559.792 377.635 496.56 613.677 312.008 720.254L-22.1526 913.228Z" fill="#FFC7B6"/>
<circle cx="116.5" cy="174.5" r="19.5" fill="#FBBF24"/>
<path fill-rule="evenodd" clip-rule="evenodd" d="M86.1109 566.498C82.0635 568.142 82.3722 573.972 86.5709 575.179L107.757 581.269L117.433 601.076C119.351 605.001 125.146 604.293 126.062 600.021L135.926 554.022C136.7 550.412 133.119 547.407 129.699 548.796L86.1109 566.498Z" fill="#4C1D95" stroke="#4C1D95" stroke-width="2.52"/>
</svg>
