<?xml version="1.0" encoding="utf-8"?>
<!-- Generator: Adobe Illustrator 27.5.0, SVG Export Plug-In . SVG Version: 6.00 Build 0)  -->
<svg version="1.1" id="Capa_1" xmlns="http://www.w3.org/2000/svg" xmlns:xlink="http://www.w3.org/1999/xlink" x="0px" y="0px"
	 viewBox="0 0 1898 2372" style="enable-background:new 0 0 1898 2372;" xml:space="preserve">
<path style="fill:#A75B3F;" d="M1223.356,388.922l-11.564-10.366l-0.185,0.204c-55.523,60.66-95.026,93.615-133.227,125.486
	c-35.505,29.617-69.037,57.591-113.089,105.528c-20.073,21.846-49.558,57.498-75.634,89.219
	c-27.878,5.744-55.849,13.212-83.135,22.197c-14.255-11.684-30.193-21.233-48.741-29.186l-0.354-0.153l-0.033,0.384
	c-0.19,2.233-0.349,4.461-0.474,6.621l-0.005,0.125l0.087,0.09c13.074,12.924,24.344,27.07,33.506,42.044
	c15.094,24.664,65.823,116.637,77.687,142.566c2.124,4.641,4.352,9.557,6.798,15.035v0.002l0.512-0.226
	c-3.099-7.057-5.278-11.788-6.243-13.858c5.136,4.509,29.808,26.885,63.924,69.572c35.319,44.19,88.266,119.799,139.932,229.062
	l0.517-0.207c-28.101-86.575-66.69-173.109-114.696-257.194c11.02-11.218,21.489-22.777,31.115-34.358l364.546-384.554l0.196-0.207
	L1223.356,388.922z"/>
<path style="fill:#A75B3F;" d="M1134.775,1611.044c-41.131-32.397-83.456-64.489-125.802-95.38
	c-2.854-2.083-5.714-4.162-8.563-6.232c0.855-13.582,1.4-27.634,1.607-41.834c-1.454-6.547-3.078-14.516-4.952-23.747
	c-6.825-33.554-17.137-84.265-34.557-139.633c-20.781-66.055-46.895-123.139-77.617-169.663
	c-85.102-128.869-193.963-222.528-309.22-321.683c-8.982-7.727-18.008-15.494-27.078-23.319
	c-18.188-15.699-58.699-75.906-65.072-105.3c0.24-1.193,0.518-2.418,0.833-3.641l0.207-0.817l-0.653,0.534
	c-18.689,15.209-34.247,33.157-44.999,51.906c-11.586,20.209-16.761,40.222-14.974,57.893
	c-21.238,14.476-35.477,36.994-46.611,57.122c-42.025,76.012-64.718,162.105-65.617,248.971
	c-1.128,109.278,32.03,216.293,64.091,319.787c30.793,99.395,62.632,202.169,64.179,306.989
	c0.866,58.764-6.994,121.745-14.593,182.652c-11.908,95.378-24.218,193.999-4.679,283.142l0.027,0.117l0.098,0.06
	c9.935,6.055,22.965,11.856,38.723,17.246c57.196,19.558,147.052,32.596,240.368,34.873c9.979,0.245,19.861,0.365,29.66,0.365
	c91.736,0,174.849-10.606,236.484-30.371l0.147-0.046l0.038-0.153c6.324-25.811,9.984-52.282,13.531-77.878
	c4.347-31.392,8.84-63.854,18.27-94.686c14.064-45.982,29.202-92.501,43.839-137.487c6.177-18.986,12.567-38.615,18.787-57.942
	l157.772,118.89l0.229,0.172l116.607-164.064l8.002-11.254l0.142-0.201l-0.185-0.166
	C1275.873,1725.892,1205.735,1666.937,1134.775,1611.044z M682.098,2240.242c-31.085-1.193-61.571-3.579-90.435-7.033
	C620.418,2236.622,650.917,2239.021,682.098,2240.242z"/>
<path style="fill:#85392E;" d="M1088.042,1215.179c-4.871-10.977-9.767-21.651-14.673-32.029
	C973.322,971.569,868.452,883.565,868.452,883.565s2.493,5.247,6.796,15.042c111.247,249.224,132.003,451.785,126.494,569.053
	l-0.001-0.002c-0.21,13.971-0.741,27.952-1.622,41.911c2.894,2.1,5.791,4.207,8.688,6.321
	c43.402,31.66,85.319,63.493,125.793,95.372C1134.091,1542.264,1129.284,1308.115,1088.042,1215.179z"/>
<polygon style="fill:#E4F4FE;" points="1335.176,1797.474 1334.964,1797.376 1227.878,1948.047 1227.715,1948.276 1266.21,1975.288 
	1266.455,1975.46 1364.035,1811.212 1364.194,1810.947 "/>
<polygon style="fill:#E4F4FE;" points="1334.136,488.975 1359.869,464.629 1360.075,464.438 1274.892,375.238 1251.878,351.134 
	1222.948,388.96 1222.796,389.164 1333.945,488.804 "/>
<path style="fill:#E4F4FE;" d="M868.452,883.565c-11.868-25.933-62.818-118.263-77.705-142.591
	c-9.418-15.394-20.757-29.453-33.551-42.099c-3.597,60.266,14.744,89.815,14.744,89.815l19.471,67.383
	c0,0-153.026-4.341-249.973-159.167v-69.526l-3.076-0.308c-20.014,6.667-46.662,23.911-54.277,53.473
	c-0.314,1.217-0.598,2.452-0.846,3.711c6.251,28.994,46.53,89.419,65.173,105.511c125.939,108.706,244.57,206.112,336.246,344.94
	c80.837,122.414,104.917,278.191,117.083,332.95l0.001,0.002c5.509-117.268-15.247-319.829-126.494-569.053
	C873.018,893.611,870.756,888.599,868.452,883.565z"/>
<path style="fill:#F7B7A1;" d="M1580.4,2101.537c-15.632-33.524-39.639-60.328-62.446-89c-12.275-15.43-24.444-30.942-36.511-46.536
	c-6.032-7.797-12.039-15.614-18.019-23.45c-2.362-3.094-13.385-21.849-16.678-21.997c9.842,0.444,19.686,0.888,29.531,1.333
	c11.227,0.505,22.671,0.991,33.519-1.958c10.847-2.948,21.199-9.942,25.304-20.406c2.064-5.258,1.977-12.201-2.604-15.505
	c-1.539-1.109-3.403-1.667-5.258-2.039c-8.646-1.741-17.558,0.115-26.371,0.391c-40.771,1.274-74.436-30.374-113.052-43.518
	c-11.635-3.961-23.676-6.211-35.864-7.84l-58.704,98.81c18.008,16.59,40.633,29.316,60.092,44.41
	c41.748,32.38,80.722,69.604,107.964,115.29c4.84,8.114,9.914,17.032,18.636,20.656c2.87,1.193,6.323,1.669,8.972,0.048
	c0.872-0.534,1.551-1.213,2.072-1.992c1.745,1.795,3.512,3.562,5.317,5.294c2.925,2.807,6.14,5.646,10.118,6.44
	c3.71,0.74,8.168-1.064,9.325-4.55c5.601,6.124,11.629,11.857,18.045,17.121c5.055,4.148,12.077,8.159,17.714,4.847
	c3.582-2.104,4.971-6.378,5.071-10.662c1.016,0.899,2.052,1.773,3.116,2.616c4.087,3.244,9.034,6.19,14.203,5.467
	c3.491-0.491,6.392-2.648,8.406-5.554c1.764-2.544,2.85-5.661,3.062-8.739C1585.812,2113.919,1583.193,2107.53,1580.4,2101.537z"/>
<path style="fill:#F7B7A1;" d="M1333.713,437.239c15.041-17.641,31.105-34.534,46.708-51.665
	c22.474-24.677,47.088-53.176,56.17-85.911c1.328-4.786,2.356-9.868,1.136-14.682c-0.912-3.597-3.418-6.97-6.698-8.48
	c2.984-6.322,5.094-13.058,6.226-19.958c0.33-2.007,0.568-4.079,0.579-6.13c0.02-3.138-0.486-6.223-1.998-8.945
	c-1.554-2.803-4.506-4.952-7.58-5.541c2.78-8.217,4.337-16.847,4.554-25.518c0.157-6.153-1.037-13.427-6.541-16.185
	c-1.797-0.902-3.784-1.119-5.746-0.828c1.125-4.749,1.917-9.576,2.354-14.436c0.681-7.624,0.302-15.947-4.433-21.961
	c-1.053-1.335-2.349-2.551-3.956-3.104c-5.258-1.81-9.824,3.881-12.546,8.729c-10.369,18.477-21.015,38.72-34.485,55.154
	c-7.775,9.486-17.601,18.091-26.607,26.376c-10.588,9.741-20.413,20.311-29.353,31.585l-0.095,0.121
	c3.745-19.994,2.665-40.899-3.278-60.36c-0.864-2.831-1.991-5.848-4.486-7.443c-3.724-2.381-8.965-0.362-11.641,3.157
	c-2.676,3.519-3.467,8.071-4.288,12.414c-1.16,6.149-2.537,12.258-4.125,18.311c-2.916,11.111-6.554,22.081-8.151,33.456
	c-1.74,12.399,0.435,24.077,3.56,35.956c3.065,11.655,11.586,21.33,12.425,33.696c0.381,5.639-7.919,18.861-16.724,30.383
	L1333.713,437.239z"/>
<path style="fill:#F7B7A1;" d="M849.867,419.249c-0.473,2.884-0.982,5.788-1.532,8.708c0,0-2.789-42.679-15.58-81.507
	c-10.138-2.516-20.064-5.807-29.63-9.685c-8.286-3.359-16.339-7.143-24.208-11.242c15.256,16.94,32.92,32.661,55.222,39.914
	c-37.863,1.549-75.9-4.981-110.412-18.952c-25.88-10.477-49.772-25.053-76.422-33.75c-7.556-2.466-15.305-4.436-23.169-5.908
	c10.76,5.719,20.981,12.591,30.47,20.532c22.179,17.001,45.96,37.023,71.115,49.337c-18.571-5.517-36.29-14.201-53.452-23.288
	c-52.141-29.358-93.785-49.927-153.396-29.443c-1.088,1.015-2.133,2.079-3.133,3.194v0.001
	c-21.317,31.413-21.294,125.675-21.294,125.675c-0.984-2.806-2.097-5.698-3.317-8.667c-16.169-7.098-33.999-1.731-43.712,14.823
	c-12.112,20.643-7.017,50.859,11.38,67.491c12.144,10.978,27.048,13.289,39.262,7.656c0.355,1.664,0.728,3.328,1.126,4.991
	c7.392,30.912,21.852,54.75,42.253,75.594v82.182c96.947,154.826,249.973,159.167,249.973,159.167L771.94,788.69
	c0,0-18.341-29.549-14.744-89.815c0.129-2.164,0.287-4.37,0.475-6.613c0.934-11.167,2.613-23.316,5.272-36.454
	c17.074-12.149,30.889-26.155,41.857-37.703c28.592-30.105,46.909-61.684,50.917-104.039c0.161-1.702,0.297-3.402,0.417-5.099
	c12.882,3.869,27.316-0.505,37.806-13.075c15.889-19.041,16.706-49.674,1.824-68.419
	C883.686,412.26,864.981,409.552,849.867,419.249z"/>
<path style="fill:#F18C77;" d="M835.719,503.595c-1.16-16.469-24.006-28.56-52.342-28.56c-2.337,0-4.717,0.085-7.125,0.253
	c-31.534,2.214-56.171,18.523-54.918,36.349c1.16,16.47,24.011,28.56,52.353,28.56c2.337,0,4.712-0.082,7.114-0.251
	C812.334,537.727,836.972,521.421,835.719,503.595z"/>
<path style="fill:#F18C77;" d="M613.485,496.201c-11.221-5.32-25.77-7.678-41.044-6.586c-31.534,2.217-56.171,18.526-54.918,36.349
	c1.16,16.469,24.011,28.562,52.342,28.562c2.342,0,4.717-0.084,7.125-0.253c15.247-1.07,29.349-5.426,39.715-12.261
	c10.409-6.866,15.808-15.421,15.198-24.088C631.292,509.258,624.756,501.545,613.485,496.201z"/>
<path style="fill:#421F35;" d="M1069.077,1848.612l-0.022-0.104l-8.356-6.3l-0.316-0.234l-0.12,0.373
	c-6.259,19.446-12.686,39.203-18.902,58.309c-14.642,44.989-29.78,91.51-43.844,137.498c-9.44,30.875-13.94,63.359-18.292,94.772
	c-3.535,25.534-7.19,51.934-13.482,77.671c-78.068,24.999-183.927,33.469-283.645,29.644c-31.182-1.221-61.68-3.621-90.435-7.033
	c-50.908-6.091-96.764-15.5-131.924-27.524l-0.354-0.12l-2.294,48.603l-0.016,0.291H1125.4l-0.011-0.288
	C1120.078,2117.106,1091.834,1957.972,1069.077,1848.612z"/>
<path style="fill:#421F35;" d="M1209.433,1907.665c-7.353,0-13.34,5.984-13.34,13.34c0,7.353,5.987,13.337,13.34,13.337
	c7.354,0,13.34-5.984,13.34-13.337C1222.774,1913.648,1216.787,1907.665,1209.433,1907.665z"/>
<path style="fill:#421F35;" d="M759.513,767.478l-0.256-0.468c-22.513-40.797-4.679-103.189-3.911-105.825l0.208-0.703l-0.621,0.387
	l-0.12,0.093c-1.519,1.692-15.998,16.677-55.844,21.53c-3.394,0.515-6.869,0.904-10.339,1.157l-0.272,0.019
	c-3.9,0.262-7.828,0.351-11.69,0.283c-1.177,0.017-2.37,0.027-3.584,0.027c-59.156,0-117.266-55.594-123.705-61.94l-2.081-1.879
	l1.345,1.95c20.868,30.267,44.912,56.741,71.456,78.685c21.238,17.556,44.122,32.269,68.008,43.73
	c40.679,19.517,70.579,22.864,70.878,22.897L759.513,767.478z"/>
<path style="fill:#421F35;" d="M581.832,423.244c-3.568,0.237-6.754,2.811-8.971,7.25c-2.19,4.388-3.175,10.088-2.778,16.053
	c0.806,12.063,7.119,21.555,14.206,21.555l0.528-0.02c7.299-0.485,12.572-10.938,11.749-23.303
	c-0.398-5.962-2.135-11.483-4.891-15.541C588.891,425.134,585.4,422.977,581.832,423.244z"/>
<path style="fill:#421F35;" d="M772.282,410.558l-0.534,0.019c-3.568,0.237-6.755,2.811-8.971,7.25
	c-2.19,4.388-3.176,10.088-2.778,16.053c0.398,5.962,2.135,11.483,4.892,15.541c2.642,3.898,5.926,6.014,9.304,6.014l0.539-0.02
	c3.568-0.236,6.749-2.811,8.966-7.25c2.189-4.388,3.176-10.088,2.778-16.053c-0.398-5.962-2.13-11.48-4.886-15.541
	C778.949,412.674,775.659,410.558,772.282,410.558z"/>
<path style="fill:#421F35;" d="M653.898,548.281l2.402-0.349c19.403-2.808,33.854-8.879,44.193-18.559l0.174-0.166l-1.661-2.394
	c-11.456-17.937-15.977-39.811-20.345-60.967l-0.365-1.738l-0.125-0.763c-0.49-2.895-0.997-5.886-1.623-8.838l-0.474-2.236
	l-0.076,2.285c-1.008,29.965,4.592,54.704,16.635,73.532c-9.854,8.525-22.35,13.789-36.474,19.31L653.898,548.281z"/>
<path style="fill:#421F35;" d="M490.87,444.276c1.28,3.124,2.37,5.954,3.317,8.653l0.539,1.544v-1.637
	c0-0.942,0.218-94.503,21.233-125.503c0.964-1.073,1.994-2.121,3.061-3.121c58.268-20.002,98.463-1.326,153.115,29.442
	c16.565,8.773,34.513,17.668,53.502,23.311l0.207-0.518c-20.901-10.232-40.642-25.629-59.739-40.521
	c-3.737-2.914-7.599-5.926-11.319-8.781c-8.971-7.509-18.694-14.13-28.914-19.7c7.261,1.433,14.43,3.298,21.348,5.553
	c15.644,5.107,30.591,12.365,45.048,19.384c10.164,4.935,20.672,10.036,31.353,14.362c31.174,12.621,65.404,19.193,99.64,19.193
	c3.628,0,7.267-0.073,10.889-0.223l1.552-0.063l-1.477-0.48c-23.461-7.628-41.153-24.488-54.068-38.691
	c7.849,4.039,15.345,7.496,22.862,10.543c9.789,3.971,19.719,7.22,29.518,9.66c12.594,38.31,15.492,80.863,15.519,81.291
	l0.142,2.201l0.409-2.168c0.561-2.971,1.078-5.905,1.536-8.713c3.601-21.944,5.414-44.931,5.393-68.332
	c15.492,1.882,30.526,1.623,44.705-0.76l-0.043-0.274l0.002-0.001h-0.002l-0.044-0.275h-0.006l-0.147,0.014
	c-3.562,0-11.531-19.92-13.509-25.664c-3.312-9.655-4.979-19.629-6.286-28.971c-2.844-20.225-8.067-41.431-14.713-59.712
	c-5.954-16.385-15.933-31.695-29.654-45.501c-12.31-12.384-27.655-23.412-44.383-31.891c-27.389-13.885-56.471-19.046-81.931-14.536
	c-38.293-17.559-72.643-26.144-104.711-26.144c-2.745,0-5.474,0.062-8.182,0.188c-49.64,2.296-93.887,28.374-112.718,66.436
	c-7.936,16.053-12.076,36.235-11.668,56.849c-18.318,8.767-29.785,20.569-35.058,36.08c-12.153,35.777,12.332,83.862,33.941,126.284
	C478.619,417.794,485.695,431.685,490.87,444.276z"/>
<path style="fill:#421F35;" d="M755.368,360.972l1.013-0.964l-1.302,0.501c-6.291,2.424-11.112,4.965-15.704,10.129
	c-7.719,8.683-9.516,16.745-10.001,27.737l-0.049,1.081l0.567-0.923c1.04-1.705,2.789-2.835,4.472-3.927
	c0.904-0.583,1.825-1.182,2.658-1.871c-0.632,2.321-0.921,4.867-0.888,7.752l0.006,0.823l0.496-0.659
	c3.394-4.548,55.512-13.959,92.454,5.831l0.785,0.422l-0.403-0.795c-16.069-31.501-48.414-38.509-66.87-33.522l0.033-0.044
	c1.863-2.326,3.971-4.965,5.354-7.648l0.169-0.321l-0.354-0.079c-4.096-0.888-14.304,1.449-18.286,5.474
	c0.349-0.809,0.73-1.618,1.139-2.41C751.653,365.657,753.277,362.968,755.368,360.972z"/>
<path style="fill:#421F35;" d="M510.071,428.563l-0.294,0.842l0.719-0.526c33.81-24.768,86.719-22.739,90.733-18.711l0.577,0.583
	l-0.104-0.814c-0.37-2.851-1.018-5.332-1.966-7.552c0.92,0.57,1.917,1.032,2.892,1.484c1.825,0.845,3.71,1.719,4.984,3.26
	l0.686,0.833l-0.201-1.062c-2.021-10.81-4.919-18.542-13.781-26.062c-5.267-4.472-10.399-6.313-16.968-7.833l-1.367-0.316
	l1.138,0.814c2.364,1.691,4.347,4.121,5.589,5.864c0.518,0.722,1.014,1.47,1.465,2.225c-4.505-3.424-14.958-4.312-18.869-2.863
	l-0.337,0.128l0.207,0.294c1.754,2.465,4.216,4.788,6.384,6.836l0.033,0.027C552.613,383.684,521.581,395.115,510.071,428.563z"/>
<path style="fill:#421F35;" d="M1027.776,1895.822l15.9-60.278l0.048-0.194l-0.168-0.109
	c-153.561-101.416-284.272-217.786-366.883-297.552c-89.514-86.425-143.397-149.68-143.931-150.309l-0.436,0.346
	c70.677,95.244,146.371,185.256,224.958,267.521c-55.681,51.462-123.352,90.339-195.728,112.441l-0.267,0.082l20.372,66.706
	l0.082,0.267l0.267-0.081c83.097-25.378,160.67-70.133,224.347-129.422c128.924,127.736,220.208,189.752,221.112,190.366
	L1027.776,1895.822z"/>
<path style="fill:#421F35;" d="M919.132,1362.138c-25.743-46.061-70.236-115.186-136.021-182.93l-0.414,0.373
	c0.299,0.354,30.466,36.009,65.513,89.546c32.345,49.409,75.579,124.585,97.88,202.14l0.027,0.095l43.213,30.752l0.398,0.281
	l3.323-34.706l0.011-0.139l-0.103-0.095c-0.191-0.177-19.463-17.633-33.364-20.871
	C958.684,1444.107,946.107,1410.406,919.132,1362.138z"/>
<path style="fill:#421F35;" d="M792.191,865.993l-0.92,0.556c-0.114,0.068-11.096,6.771-21.99,19.585
	c-10.061,11.828-22.116,31.438-22.394,57.674l-0.011,1.068l44.776-77.949L792.191,865.993z"/>
<path style="fill:#421F35;" d="M816.998,730.669l1.471,1.735c0.795,0.937,79.981,94.709,133.706,183.131l0.19,0.313l32.144-34.151
	l0.153-0.161l-0.12-0.185c-0.386-0.577-39.879-58.789-165.698-149.353L816.998,730.669z"/>
<path style="fill:#421F35;" d="M604.449,569.544l-1.225-0.283l-1.106,0.687l-0.283,1.247l0.692,1.087
	c17.54,12.354,32.781,18.109,47.957,18.109c6.815,0,13.52-1.157,20.509-3.538c0.871-0.302,1.335-1.256,1.04-2.124
	c-0.3-0.872-1.22-1.354-2.124-1.046h-0.006C648.756,590.887,628.564,586.529,604.449,569.544z"/>
<path style="fill:#421F35;" d="M481.049,488.351c2.908-1.669,6.721-0.34,9.315,1.438c3.731,2.557,6.515,6.539,7.642,10.927h0.005
	c0.223,0.877,1.068,1.408,1.966,1.218c0.877-0.188,1.449-1.03,1.302-1.915c-0.305-1.811-0.566-3.644-0.822-5.417l-0.011-0.071
	c-0.806-5.572-1.639-11.335-3.742-16.736c-3.344-8.566-9.62-14.479-16.788-15.824c-6.084-1.149-12.577,1.174-16.565,5.908
	c-3.993,4.731-5.18,11.532-3.029,17.328l0.877,0.942l1.275,0.046l0.937-0.866l0.048-1.285c-1.716-4.611-0.729-10.241,2.452-14.008
	c3.171-3.766,8.509-5.697,13.395-4.774c6.024,1.13,11.363,6.272,14.272,13.748c1.492,3.813,2.309,7.921,2.936,11.85
	c-1.258-1.467-2.685-2.753-4.254-3.826c-3.426-2.358-8.595-4.017-12.86-1.59c-3.258,1.846-5.257,5.918-5.088,10.371
	c0.141,3.789,1.645,7.332,2.974,10.459c0.267,0.613,0.861,1.011,1.58,1.011h0.016l0.599-0.128c0.85-0.359,1.247-1.343,0.888-2.198
	c-1.275-2.999-2.593-6.101-2.713-9.268C477.535,492.47,478.864,489.591,481.049,488.351z"/>
<path style="fill:#421F35;" d="M886.672,457.093l1.052,0.738c0.92,0.199,1.787-0.36,1.999-1.261
	c1.361-6.036-0.719-12.621-5.306-16.777c-4.57-4.154-11.325-5.575-17.208-3.65c-6.923,2.28-12.354,8.977-14.533,17.91
	c-1.368,5.619-1.427,11.423-1.487,17.039v0.095c-0.017,1.803-0.033,3.669-0.098,5.496c-0.033,0.899,0.643,1.659,1.519,1.724
	l1.171-0.278l0.643-1.188c0.539-4.499,2.778-8.814,6.133-11.842c2.332-2.113,5.922-3.927,9.042-2.664
	c2.321,0.937,4.026,3.614,4.336,6.823c0.305,3.159-0.588,6.392-1.455,9.549c-0.245,0.888,0.283,1.811,1.204,2.067l0.408,0.049
	c0.752,0,1.416-0.504,1.618-1.239c0.899-3.263,1.918-6.964,1.558-10.747c-0.43-4.434-2.947-8.206-6.416-9.606
	c-4.576-1.833-9.462,0.501-12.534,3.285c-1.416,1.269-2.664,2.734-3.72,4.366c0.098-3.968,0.359-8.141,1.334-12.139
	c1.465-6.022,5.469-13.264,12.322-15.525c4.674-1.544,10.263-0.357,13.917,2.952c3.645,3.307,5.366,8.756,4.282,13.561
	L886.672,457.093z"/>
<path style="fill:#421F35;" d="M594.323,982.895l1.263,0.288l0.997-0.661l42.166-63.084l38.925,151.903l0.866,1.108l1.34,0.046
	l0.06-0.025c0.267-0.106,26.909-10.897,68.759,6.49c52.789,21.917,132.982,90.194,215.251,290.997
	c0.256,0.626,0.861,1.035,1.585,1.032h0.016l0.577-0.117c0.855-0.349,1.264-1.327,0.915-2.184
	c-82.699-201.864-163.683-270.656-217.054-292.821c-37.107-15.402-62.261-9.494-69.528-7.136l-39.399-153.754
	c-0.163-0.64-0.692-1.125-1.345-1.237c-0.643-0.103-1.307,0.185-1.673,0.722l-43.223,64.71
	c-36.572-25.629-77.328-74.749-105.103-111.482c-30.88-40.84-52.653-75.248-52.865-75.585c-0.496-0.782-1.514-1.018-2.31-0.52
	c-0.779,0.493-1.013,1.526-0.523,2.307C437.64,799.6,523.477,934.252,594.323,982.895z"/>
<path style="fill:#421F35;" d="M500.402,1344.745l-0.719,1.06l0.24,1.255l17.942,27.178l1.368,0.774l0.882-0.264l0.071-0.032
	l0.719-1.062l-0.24-1.256l-17.943-27.179v-0.003C502.205,1344.443,501.159,1344.233,500.402,1344.745z"/>
<path style="fill:#421F35;" d="M496.371,1359.559l-1.236,0.289l-0.681,1.087l0.283,1.247c5.73,8.046,12.566,15.214,20.318,21.307
	l1.051,0.381l1.199-0.586l0.098-0.077l0.349-1.228l-0.626-1.124c-7.506-5.894-14.113-12.831-19.653-20.615L496.371,1359.559z"/>
<path style="fill:#421F35;" d="M756.79,1149.965l-0.005,0.003c-0.659,0.64-0.675,1.7-0.039,2.364
	c6.777,7.019,12.703,14.869,17.622,23.328l0.038,0.065l1.368,0.79l0.812-0.218l0.071-0.027c0.795-0.466,1.068-1.49,0.599-2.287
	c-5.044-8.694-11.134-16.758-18.101-23.973C758.528,1149.347,757.46,1149.325,756.79,1149.965z"/>
<path style="fill:#421F35;" d="M772.892,1151.464l-0.992-0.814l-1.269,0.125c-0.812,0.431-1.122,1.446-0.692,2.263
	c3.274,6.142,7.108,12.038,11.406,17.526l1.302,0.664l0.969-0.335l0.082-0.044c0.724-0.569,0.85-1.624,0.283-2.35
	C779.815,1163.18,776.084,1157.447,772.892,1151.464z"/>
<path style="fill:#421F35;" d="M616.057,1429.757l-1.089,0.678c-0.534,0.752-0.36,1.798,0.386,2.332
	c67.109,48.036,149.481,76.143,232.001,79.139c0.904,0,1.639-0.708,1.672-1.61c0.032-0.92-0.692-1.7-1.613-1.735
	c-81.811-2.974-163.535-30.855-230.11-78.513L616.057,1429.757z"/>
<path style="fill:#421F35;" d="M912.655,1506.216c0.049,0.885,0.784,1.577,1.683,1.577l0.081-0.003
	c0.915-0.052,1.629-0.842,1.58-1.762c-2.593-46.516-15.105-93.076-36.174-134.646c-0.403-0.814-1.411-1.141-2.245-0.741
	l-0.006,0.003l-0.833,0.972l0.098,1.275C897.708,1414.058,910.09,1460.16,912.655,1506.216z"/>
<path style="fill:#421F35;" d="M945.731,1480.799c-0.937-0.196-1.798,0.376-1.988,1.275l-7.544,34.469
	c-0.196,0.905,0.376,1.798,1.302,1.999l0.332,0.033c0.779,0,1.47-0.553,1.634-1.313l7.545-34.469
	c0.196-0.904-0.376-1.798-1.275-1.994H945.731z"/>
<path style="fill:#421F35;" d="M955.911,1491.882l-1.209-0.322c-0.915,0.093-1.591,0.915-1.498,1.833
	c1.291,12.776,3.563,25.533,6.744,37.923c0.196,0.741,0.861,1.255,1.623,1.255h0.017l0.403-0.052l1.024-0.768l0.18-1.266
	c-3.148-12.253-5.387-24.847-6.656-37.433L955.911,1491.882z"/>
<path style="fill:#421F35;" d="M1326.031,1784.526c-6.749,2.773-13.177,6.346-19.103,10.628c-0.746,0.539-0.915,1.585-0.381,2.337
	l1.34,0.714l0.927-0.3l0.076-0.038c5.703-4.121,11.896-7.566,18.411-10.241l0.91-0.91v-1.274
	C1327.855,1784.591,1326.875,1784.164,1326.031,1784.526z"/>
<path style="fill:#421F35;" d="M1324.995,1793.65l-7,7.002c-0.653,0.651-0.653,1.713,0,2.364l1.182,0.515l1.094-0.452l7.087-7.065
	c0.654-0.651,0.654-1.714,0-2.365C1326.706,1792.996,1325.649,1792.996,1324.995,1793.65z"/>
<path style="fill:#421F35;" d="M1289.153,1755.996c-0.92,0-1.672,0.749-1.672,1.672c0.022,24.561-3.126,49.052-9.358,72.796v0.003
	c-0.229,0.894,0.311,1.811,1.231,2.048l0.392,0.046c0.757,0,1.422-0.512,1.623-1.247c6.297-24.036,9.479-48.812,9.456-73.646
	C1290.825,1756.745,1290.074,1755.996,1289.153,1755.996z"/>
<path style="fill:#421F35;" d="M1214.974,1886.51l-1.073-0.681l-1.237,0.24l-0.702,1.12c-0.817,4.695-1.188,9.516-1.101,14.323
	c0.016,0.905,0.768,1.64,1.672,1.64h0.027h0.005l1.177-0.512l0.463-1.193c-0.087-4.573,0.267-9.179,1.046-13.689L1214.974,1886.51z"
	/>
<path style="fill:#421F35;" d="M1226.767,1892.99c-0.828-0.406-1.819-0.109-2.25,0.716l-5.338,10.257
	c-0.425,0.82-0.109,1.833,0.708,2.258l0.817,0.21l1.405-0.85l5.371-10.333l0.114-1.28L1226.767,1892.99z"/>
<path style="fill:#421F35;" d="M1198.73,1859.043l-1.269-0.134l-0.997,0.807c-6.39,11.766-13.705,23.164-21.74,33.873
	c-0.556,0.739-0.403,1.789,0.332,2.345l1.029,0.354l1.22-0.607l0.098-0.084c8.133-10.848,15.535-22.385,22.001-34.285
	C1199.841,1860.5,1199.542,1859.484,1198.73,1859.043z"/>
<path style="fill:#421F35;" d="M1268.862,1805.576l-1.236,0.275l-0.671,1.131c-3.056,20.272-8.318,40.262-15.639,59.41l0.033,1.275
	l0.986,0.901l0.544,0.095c0.687,0,1.318-0.431,1.563-1.073c7.408-19.389,12.736-39.612,15.824-60.113l-0.311-1.242
	L1268.862,1805.576z"/>
<path style="fill:#421F35;" d="M894.957,1393.887l1.384,0.817l0.79-0.204l0.065-0.025c0.806-0.447,1.1-1.465,0.654-2.277
	c-8.519-15.369-17.632-30.78-27.089-45.8c-0.485-0.773-1.52-1.01-2.304-0.523l-0.741,1.043l0.212,1.266
	c9.369,14.876,18.45,30.232,26.991,45.637L894.957,1393.887z"/>
<path style="fill:#421F35;" d="M652.771,1438.905c-17.535-10.848-34.001-23.562-48.943-37.795l-1.155-0.46l-0.044,0.003
	l-1.165,0.518l-0.464,1.195l0.518,1.171c15.1,14.38,31.752,27.236,49.488,38.212l0.915,0.272l1.356-0.755l0.039-0.06
	C653.8,1440.42,653.555,1439.387,652.771,1438.905z"/>
<path style="fill:#421F35;" d="M841.957,1526.139c0.855,0,1.568-0.64,1.661-1.485c0.104-0.917-0.556-1.745-1.47-1.852l-43.093-4.862
	c-1.019-0.076-1.743,0.52-1.847,1.476c-0.103,0.918,0.556,1.746,1.471,1.852l43.103,4.862L841.957,1526.139z"/>
<path style="fill:#421F35;" d="M652.804,1695.274l0.239,1.256l1.367,0.774l0.882-0.264l0.071-0.035
	c24.54-16.219,46.171-36.164,64.299-59.279l0.349-1.228l-0.626-1.125l-1.242-0.344l-1.106,0.629
	c-17.921,22.84-39.291,42.543-63.514,58.557L652.804,1695.274z"/>
<path style="fill:#421F35;" d="M688.989,1648.529l1.056,0.387l1.193-0.58l17.256-21.685l0.354-1.234l-0.621-1.117
	c-0.741-0.577-1.787-0.45-2.348,0.269l-17.159,21.609l-0.354,1.234L688.989,1648.529z"/>
<path style="fill:#421F35;" d="M948.59,805.41l0.164,0.008c0.861,0,1.574-0.643,1.667-1.495c2.609-24.556,2.675-47.943,2.74-70.56
	h-0.278l0.278-0.12c0.104-34.87,0.201-67.806,8.988-103.727c0.212-0.896-0.338-1.803-1.231-2.024
	c-0.936-0.207-1.803,0.327-2.026,1.228c-8.874,36.33-8.972,69.478-9.075,104.575v0.06c-0.065,22.532-0.136,45.83-2.729,70.214
	l0.365,1.228L948.59,805.41z"/>
<path style="fill:#421F35;" d="M936.34,816.217l0.142,0.005c0.871,0,1.59-0.654,1.667-1.52l3.535-38.068
	c0.087-0.918-0.594-1.735-1.514-1.819l-0.136-0.006c-0.877,0-1.601,0.645-1.683,1.52l-3.535,38.068l0.376,1.22L936.34,816.217z"/>
<path style="fill:#421F35;" d="M1093.605,614.418l0.185,0.008c0.855,0,1.569-0.64,1.662-1.487
	c4.946-44.27,15.263-87.876,30.662-129.61c0.322-0.866-0.125-1.827-0.986-2.149c-0.882-0.321-1.83,0.109-2.152,0.991
	c-15.502,42.022-25.885,85.894-30.847,130.395l0.354,1.231L1093.605,614.418z"/>
<path style="fill:#421F35;" d="M1126.424,518.872l0.338,0.036c0.79,0,1.481-0.561,1.639-1.332l9.102-43.858
	c0.185-0.904-0.397-1.789-1.296-1.975l-1.258,0.223l-0.725,1.073l-9.102,43.858C1124.937,517.802,1125.52,518.687,1126.424,518.872z
	"/>
<path style="fill:#421F35;" d="M1217.882,627.709l0.398,1.22l1.144,0.574l0.125,0.006c0.872,0,1.601-0.678,1.667-1.544
	c5.834-75.707,2.669-152.129-9.413-227.139c-0.158-0.939-0.959-1.547-1.923-1.383c-0.91,0.145-1.531,1.002-1.389,1.914
	C1220.535,476.093,1223.695,552.247,1217.882,627.709z"/>
<path style="fill:#421F35;" d="M1223.531,429.108c0.114,0.823,0.828,1.444,1.678,1.444h0.005l0.208-0.016
	c0.915-0.125,1.552-0.972,1.432-1.885l-3.492-25.152c-0.125-0.918-0.948-1.531-1.89-1.424c-0.915,0.125-1.553,0.972-1.433,1.887
	L1223.531,429.108z"/>
<path style="fill:#421F35;" d="M1307.233,542.109l12.256-44.512c0.245-0.89-0.283-1.813-1.176-2.059
	c-0.904-0.245-1.808,0.286-2.048,1.171l-12.256,44.512c-0.245,0.89,0.283,1.813,1.204,2.067l0.409,0.049
	C1306.372,543.338,1307.036,542.834,1307.233,542.109z"/>
<path style="fill:#421F35;" d="M1325.257,504.091l-0.229-0.013c-0.833,0-1.536,0.596-1.662,1.444
	c-0.849,6.212-2.326,12.376-4.374,18.327l0.076,1.277l1.002,0.861l0.501,0.079c0.708,0,1.345-0.452,1.58-1.128
	c2.124-6.15,3.65-12.529,4.537-18.959c0.125-0.915-0.517-1.762-1.432-1.885V504.091z"/>
<path style="fill:#421F35;" d="M1059.075,782.234l0.899,0.259l1.362-0.771l0.038-0.062c28.336-47.24,53.301-97.074,74.212-148.12
	c0.349-0.855-0.06-1.833-0.915-2.181c-0.871-0.351-1.825,0.052-2.179,0.915c-20.852,50.898-45.745,100.579-73.994,147.667
	C1058.024,780.731,1058.286,781.761,1059.075,782.234z"/>
<path style="fill:#421F35;" d="M1091.012,745.417l-0.997,0.817c-9.664,18.175-20.019,36.276-30.771,53.805l-0.202,1.267l0.752,1.035
	l0.91,0.27l1.356-0.758l0.039-0.06c10.785-17.581,21.168-35.744,30.869-53.99c0.43-0.814,0.119-1.827-0.692-2.261L1091.012,745.417z
	"/>
<path style="fill:#421F35;" d="M425.106,801.12l-1.275-0.046l-0.937,0.882c-4.875,10.807-8.492,22.186-10.736,33.822
	c-0.18,0.904,0.414,1.787,1.345,1.966l0.294,0.025c0.801,0,1.493-0.569,1.64-1.357c2.206-11.379,5.736-22.507,10.508-33.078
	C426.32,802.496,425.945,801.501,425.106,801.12z"/>
<path style="fill:#421F35;" d="M434.328,831.278h0.005l0.365-0.049c0.893-0.218,1.444-1.125,1.231-2.021
	c-2.005-8.135-2.615-16.464-1.82-24.757c0.087-0.918-0.593-1.738-1.503-1.825l-1.209,0.351l-0.621,1.155
	c-0.828,8.672-0.191,17.377,1.895,25.874C432.857,830.756,433.527,831.278,434.328,831.278z"/>
<path style="fill:#421F35;" d="M676.15,1029.956c0.223,0.686,0.861,1.149,1.623,1.149h0.011l0.474-0.079l0.975-0.831l0.098-1.28
	c-7.092-21.762-12.174-44.302-15.099-67.003l-0.67-1.13l-1.209-0.313c-0.91,0.119-1.558,0.958-1.443,1.877
	C663.872,985.286,669.003,1008.034,676.15,1029.956z"/>
<path style="fill:#421F35;" d="M581.276,956.863l1.122,0.449l1.144-0.514l0.093-0.069c0.615-0.692,0.556-1.751-0.136-2.361
	c-13.493-12.022-26.354-24.981-38.234-38.514c-0.6-0.683-1.651-0.76-2.359-0.152l-0.567,1.149l0.419,1.215
	C554.722,931.7,567.68,944.754,581.276,956.863z"/>
<path style="fill:#421F35;" d="M794.032,1080.187c12.97,11.76,25.389,24.433,36.916,37.667l1.253,0.599l1.024-0.384l0.087-0.052
	l0.572-1.147l-0.408-1.212c-11.597-13.313-24.115-26.081-37.199-37.95c-0.676-0.615-1.732-0.553-2.364,0.111v0.003l-0.43,1.207
	L794.032,1080.187z"/>
<path style="fill:#421F35;" d="M805.101,862.793l-0.877,0.926l0.033,1.277l0.931,0.888c18.461,7.125,34.846,20.002,46.143,36.256
	l1.318,0.727l0.436-0.049c0.67-0.158,1.166-0.7,1.274-1.38c1.847-12.183,2.353-24.602,1.498-36.907
	c-0.06-0.907-0.779-1.556-1.737-1.556h-0.049c-0.915,0.066-1.612,0.866-1.547,1.784c0.736,10.654,0.431,21.445-0.91,32.084
	c-11.505-15.165-27.541-27.258-45.222-34.083L805.101,862.793z"/>
<path style="fill:#421F35;" d="M826.464,907.253l0.088-0.054l0.534-1.163l-0.441-1.199c-7.991-8.65-16.619-16.968-25.646-24.727
	l-1.215-0.398l-1.143,0.575c-0.6,0.702-0.518,1.759,0.18,2.361c8.901,7.651,17.437,15.879,25.362,24.458l1.225,0.561
	L826.464,907.253z"/>
<path style="fill:#421F35;" d="M868.43,1045.369c12.371,27.083,25.16,55.09,34.17,83.788c0.218,0.7,0.855,1.171,1.629,1.171h0.011
	l0.457-0.074l0.986-0.822l0.109-1.275c-9.064-28.878-21.887-56.961-34.29-84.12l-0.082-0.177
	c-17.017-37.254-34.612-75.776-42.477-116.442c-0.175-0.918-1.008-1.504-1.961-1.327c-0.904,0.174-1.498,1.057-1.318,1.958
	c7.931,41.056,25.607,79.755,42.722,117.231L868.43,1045.369z"/>
<path style="fill:#421F35;" d="M816.317,949.943l1.15,0.569c0.506,0.036,0.899-0.106,1.225-0.389l0.556-1.169
	c0.207-2.999-0.969-6.033-3.154-8.119c-1.384-1.313-2.952-1.773-4.336-1.277c-1.378,0.504-2.244,1.803-2.565,3.854
	c-1.231,7.288-0.049,14.939,3.323,21.541c0.882,1.732,2.168,3.903,4.287,5.344c0.921,0.626,1.803,0.951,2.702,0.983h0.12
	c2.173,0,3.835-1.808,4.352-3.595c0.479-1.664,0.218-3.333,0.011-4.674c-0.136-0.839-0.828-1.411-1.661-1.411l-0.256,0.019
	l-1.095,0.67l-0.3,1.245c0.174,1.065,0.365,2.268,0.087,3.216c-0.201,0.695-0.73,1.166-1.101,1.185l-0.975-0.406
	c-1.503-1.021-2.495-2.726-3.187-4.099c-3.051-5.962-4.123-12.877-3.006-19.471c0.119-0.738,0.272-1.057,0.354-1.185l0.964,0.509
	c1.449,1.403,2.239,3.434,2.102,5.447L816.317,949.943z"/>
<path style="fill:#421F35;" d="M848.705,1031.219c0.91,0,1.646-0.713,1.673-1.648c0.038-1.402,0.098-3.524-1.161-5.202
	c-0.828-1.098-2.288-1.732-3.742-1.632c-1.204,0.104-2.195,0.746-2.718,1.763c-0.359,0.719-0.403,1.432-0.42,2.105
	c-0.147,8.046,1.766,16.058,5.529,23.172c1.242,2.358,3.045,5.289,5.992,7.024c0.904,0.534,1.726,0.795,2.549,0.795h0.006
	l0.615-0.057c1.596-0.294,2.887-1.756,3.138-3.557c0.18-1.345-0.185-2.647-0.457-3.595c-0.234-0.88-1.16-1.392-2.054-1.163h-0.005
	l-1.008,0.8l-0.142,1.283c0.207,0.752,0.419,1.525,0.354,2.154l-0.528,0.779l-0.763-0.318c-2.222-1.31-3.704-3.737-4.744-5.709
	c-3.486-6.599-5.262-14.029-5.137-21.492l0.212-0.561l0.692,0.283c0.474,0.694,0.479,1.841,0.446,3.053
	C847.006,1030.419,847.736,1031.193,848.705,1031.219z"/>
<path style="fill:#421F35;" d="M520.382,1987.068l1.389,0.833l0.834-0.22c60.839-32.74,120.568-69.223,177.513-108.432
	c50.103-34.494,100.8-73.651,132.252-126.14c0.474-0.79,0.213-1.82-0.577-2.294l-1.285-0.19l-1.013,0.765
	c-31.114,51.939-81.479,90.821-131.272,125.102c-56.836,39.135-116.455,75.552-177.196,108.241l-0.812,0.988l0.131,1.28
	L520.382,1987.068z"/>
<path style="fill:#421F35;" d="M799.839,1818.633l1.176,0.51l1.101-0.455l0.087-0.062c17.911-18.02,33.26-38.416,45.631-60.63
	c0.441-0.807,0.152-1.828-0.648-2.272l-0.006-0.003c-0.817-0.438-1.82-0.161-2.277,0.648
	c-12.212,21.944-27.378,42.096-45.075,59.897C799.175,1816.926,799.185,1817.988,799.839,1818.633z"/>
<path style="fill:#421F35;" d="M503.867,1978.843h0.016l0.589-0.12c15.769-6.544,30.352-15.461,43.332-26.506l0.589-1.138
	l-0.398-1.22v-0.003c-0.594-0.692-1.656-0.781-2.358-0.188c-12.714,10.816-26.991,19.55-42.45,25.961l-0.904,0.91l0.006,1.277
	C502.538,1978.439,503.137,1978.843,503.867,1978.843z"/>
<path style="fill:#421F35;" d="M436.518,2155.252h-0.006c-0.861-0.365-1.825,0.013-2.2,0.864l-7.545,17.235
	c-0.37,0.842,0.016,1.83,0.915,2.22l0.615,0.122c0.665,0,1.264-0.392,1.531-1.002l7.545-17.234
	C437.743,2156.614,437.357,2155.625,436.518,2155.252z"/>
<path style="fill:#421F35;" d="M454.085,2176.91l-1.225-0.316c-6.178,0.751-12.305,2.789-17.72,5.891l-0.784,1.008l0.163,1.274
	l0.032,0.065l1.378,0.798l0.801-0.215l0.065-0.027c5.033-2.881,10.731-4.774,16.472-5.471c0.915-0.112,1.568-0.948,1.46-1.866
	L454.085,2176.91z"/>
<path style="fill:#421F35;" d="M928.61,2175.437l-0.953-0.855l-1.274,0.068l-0.861,0.953l0.071,1.277
	c3.764,7.874,8.52,15.266,14.13,21.969l1.27,0.621l0.997-0.365l0.087-0.046l0.594-1.136l-0.387-1.225
	C936.862,2190.218,932.259,2183.063,928.61,2175.437z"/>
<path style="fill:#421F35;" d="M947.811,2183.202l0.18-0.011l1.116-0.626l0.349-1.234l-3.469-29.058l-0.643-1.13l-1.214-0.332
	l-1.117,0.626l-0.349,1.234l3.469,29.058C946.232,2182.567,946.946,2183.202,947.811,2183.202z"/>
<path style="fill:#421F35;" d="M985.501,1982.65l0.763,0.191l1.4-0.844l0.032-0.068c11.112-21.001,20.373-43.147,27.519-65.823
	l-0.109-1.275l-0.986-0.825l-1.275,0.106l-0.823,0.986c-7.087,22.481-16.265,44.438-27.279,65.268
	C984.313,1981.18,984.623,1982.193,985.501,1982.65z"/>
<path style="fill:#421F35;" d="M1005.099,1900.859l-0.888-0.915l-1.275-0.027l-0.926,0.904
	c-6.319,14.681-14.233,28.71-23.526,41.698l-0.289,1.245l0.675,1.087l1.002,0.337l1.231-0.637l0.103-0.085
	c9.43-13.177,17.464-27.415,23.875-42.325L1005.099,1900.859z"/>
<path style="fill:#421F35;" d="M877.967,1895.817l-0.605-1.13c-0.719-0.583-1.77-0.476-2.358,0.229
	c-78.499,95.377-159.679,194.001-260.588,269.232l-0.654,1.098l0.316,1.242l1.318,0.697l0.942-0.316l0.082-0.041
	c101.23-75.474,182.54-174.255,261.17-269.788L877.967,1895.817z"/>
<path style="fill:#421F35;" d="M799.762,2014.25l-1.253-0.297l-1.078,0.668c-29.551,40.69-63.825,77.993-101.873,110.871
	c-0.703,0.602-0.779,1.662-0.18,2.362l1.258,0.602l1.019-0.382l0.081-0.052c38.245-33.04,72.692-70.532,102.396-111.435l0.3-1.247
	L799.762,2014.25z"/>
<path style="fill:#421F35;" d="M1129.654,1721.829c0.795,0,1.487-0.567,1.64-1.345l-0.245-1.253l-1.068-0.713
	c-107.408-21.296-210.948-58.067-307.749-109.289c-0.801-0.414-1.819-0.115-2.261,0.699c-0.431,0.814-0.12,1.828,0.692,2.264
	c97.096,51.373,200.946,88.25,308.691,109.611L1129.654,1721.829z"/>
<path style="fill:#421F35;" d="M821.709,1594.877l35.549,20.468l0.877,0.243l1.378-0.793l0.039-0.065
	c0.452-0.801,0.18-1.828-0.616-2.288l-35.554-20.468c-0.8-0.455-1.83-0.18-2.283,0.615h-0.005
	C820.642,1593.39,820.914,1594.417,821.709,1594.877z"/>
<path style="fill:#421F35;" d="M1175.422,1738.843c0.033-0.924-0.687-1.702-1.607-1.738c-29.382-1.152-59.042-4.012-88.152-8.5
	c-0.915-0.158-1.77,0.479-1.912,1.397l0.305,1.242l1.095,0.667c29.208,4.505,58.998,7.378,88.598,8.538
	C1174.648,1740.45,1175.384,1739.745,1175.422,1738.843z"/>
<path style="fill:#421F35;" d="M1026.823,1510.498l1.127-34.47c0.027-0.921-0.697-1.694-1.618-1.727h-0.055
	c-0.904,0-1.639,0.708-1.672,1.618l-1.127,34.47c-0.027,0.921,0.697,1.694,1.672,1.727
	C1026.055,1512.115,1026.79,1511.407,1026.823,1510.498z"/>
<path style="fill:#421F35;" d="M1032.815,1514.302c0.806,0,1.498-0.574,1.645-1.373l4.151-22.652
	c0.163-0.907-0.441-1.782-1.345-1.948h-0.005c-0.894-0.117-1.776,0.45-1.939,1.348l-4.151,22.652
	c-0.163,0.907,0.441,1.781,1.373,1.95L1032.815,1514.302z"/>
<path style="fill:#421F35;" d="M1110.208,1572.96l-1.286,0.071l-0.849,0.959l0.076,1.277l8.084,16.693
	c0.278,0.577,0.844,0.939,1.547,0.939h0.016l0.67-0.161l0.85-0.959l-0.077-1.277l-8.083-16.693L1110.208,1572.96z"/>
<path style="fill:#421F35;" d="M1123.129,1590.212l0.12-0.003l1.144-0.58l0.397-1.218c-0.49-6.526-1.411-13.119-2.723-19.594
	l-0.725-1.07l-1.248-0.237c-0.904,0.186-1.492,1.07-1.307,1.972c1.28,6.286,2.179,12.74,2.669,19.185
	C1121.522,1589.533,1122.252,1590.212,1123.129,1590.212z"/>
<path style="fill:#421F35;" d="M917.672,970.306l-0.991,0.809l-0.126,1.272l4.51,15.02c0.207,0.7,0.861,1.19,1.634,1.19h0.011
	l0.441-0.068l0.992-0.809l0.125-1.272l-4.51-15.021C919.492,970.541,918.62,970.018,917.672,970.306z"/>
<path style="fill:#421F35;" d="M980.941,1076.91h0.016l0.599-0.125c0.85-0.362,1.248-1.345,0.888-2.193
	c-18.313-43.3-40.816-85.085-66.875-124.193l-1.068-0.711l-1.253,0.248c-0.768,0.509-0.975,1.55-0.468,2.32
	c25.95,38.937,48.349,80.534,66.581,123.637C979.623,1076.513,980.222,1076.91,980.941,1076.91z"/>
<path style="fill:#421F35;" d="M983.3,1050.083l-0.893,0.915l0.016,1.28l10.998,25.754c0.256,0.613,0.855,1.011,1.574,1.011h0.016
	l0.605-0.128l0.894-0.915l-0.016-1.28l-10.998-25.754l-0.91-0.894L983.3,1050.083z"/>
<path style="fill:#421F35;" d="M1068.624,1252.901c11.26,43.654,18.036,88.963,24.583,132.78c0.126,0.826,0.823,1.425,1.678,1.425
	l0.224-0.019l1.1-0.654l0.311-1.248l-0.027-0.168c-6.558-43.85-13.335-89.192-24.621-132.955
	c-12.757-49.49-29.605-90.396-51.519-125.051c-0.469-0.771-1.514-1-2.304-0.52l-0.741,1.049l0.224,1.261
	C1039.253,1163.169,1055.965,1203.761,1068.624,1252.901z"/>
<path style="fill:#421F35;" d="M1065.699,1312.463h0.006l0.087-0.002c0.915-0.049,1.629-0.837,1.58-1.76
	c-1.574-29.27-7.169-58.179-16.619-85.915c-0.299-0.874-1.225-1.335-2.13-1.046c-0.872,0.302-1.335,1.255-1.035,2.124
	c9.353,27.454,14.882,56.057,16.44,85.017C1064.076,1311.768,1064.811,1312.463,1065.699,1312.463z"/>
<path style="fill:#421F35;" d="M1045.659,1384.643c-0.855,0.338-1.275,1.313-0.937,2.173c9.995,25.005,16.957,51.212,20.688,77.898
	c0.114,0.822,0.828,1.441,1.678,1.441h0.006l0.212-0.017c0.91-0.125,1.552-0.972,1.427-1.888
	c-3.78-26.966-10.812-53.436-20.896-78.676h-0.005C1047.489,1384.714,1046.498,1384.3,1045.659,1384.643z"/>
<path style="fill:#421F35;" d="M564.391,1641.761l-0.567,1.149l0.419,1.215l1.242,0.591l1.029-0.387l0.088-0.052
	c31.386-27.563,58.758-59.333,81.353-94.424c0.502-0.773,0.278-1.811-0.496-2.312l-1.258-0.234l-1.057,0.735
	C622.702,1582.888,595.532,1614.419,564.391,1641.761z"/>
<path style="fill:#421F35;" d="M610.081,1576.425l1.029,0.359l1.215-0.607l0.098-0.082c8.59-11.403,16.347-23.573,23.058-36.167
	c0.43-0.817,0.12-1.833-0.692-2.263l-1.275-0.123l-0.986,0.812c-6.618,12.422-14.277,24.441-22.775,35.725l-0.321,1.239
	L610.081,1576.425z"/>
<path style="fill:#421F35;" d="M614.319,837.273l-0.109,0.003l-1.144,0.564l-0.419,1.215l0.567,1.149
	c18.019,15.813,36.763,31.308,55.714,46.053l1.04,0.376l1.209-0.591l0.093-0.079l0.343-1.234l-0.637-1.114
	c-18.945-14.751-37.635-30.202-55.556-45.927L614.319,837.273z"/>
<path style="fill:#421F35;" d="M662.118,870.397l1.062,0.389l1.193-0.575l0.098-0.076c0.577-0.722,0.457-1.778-0.262-2.353
	l-26.942-21.527c-0.719-0.575-1.77-0.455-2.353,0.262c-0.572,0.722-0.457,1.775,0.262,2.353L662.118,870.397z"/>
<path style="fill:#421F35;" d="M504.983,713.246l1.269,0.618l1.008-0.368l0.082-0.049c0.703-0.596,0.795-1.656,0.202-2.358
	c-5.741-6.815-10.982-14.168-15.574-21.854v-0.003l-1.035-0.768l-1.258,0.188l-0.768,1.03l0.185,1.263
	C493.762,698.768,499.106,706.268,504.983,713.246z"/>
<polygon style="fill:#421F35;" points="520.225,708.894 521.423,708.311 521.521,708.235 521.87,707.006 521.243,705.885 
	494.716,685.005 493.485,684.657 492.368,685.283 492.019,686.517 492.646,687.631 519.173,708.51 "/>
<path style="fill:#421F35;" d="M554.498,733.864l0.997-0.36l0.088-0.046c0.702-0.583,0.806-1.639,0.229-2.355
	c-15.219-18.469-26.675-40.408-33.146-63.444l-0.779-1.005l-1.28-0.158l-1.008,0.795l-0.147,1.27
	c6.586,23.482,18.264,45.846,33.767,64.671L554.498,733.864z"/>
<path style="fill:#421F35;" d="M691.157,838.455c0.643,0,1.237-0.375,1.514-0.961c0.392-0.833,0.033-1.833-0.801-2.225
	c-26.615-12.491-51.89-27.999-75.112-46.091l-1.214-0.349l-1.133,0.637l-0.343,1.234l0.638,1.117
	c23.412,18.24,48.894,33.881,75.797,46.5L691.157,838.455z"/>
<path style="fill:#421F35;" d="M765.838,864.305c0.872,0,1.591-0.654,1.667-1.522l-0.381-1.22l-1.133-0.596
	c-10.785-0.981-21.581-2.762-32.089-5.297c-0.899-0.191-1.797,0.351-2.015,1.237c-0.213,0.896,0.338,1.8,1.237,2.018v0.003
	c10.66,2.568,21.614,4.376,32.58,5.373L765.838,864.305z"/>
<path style="fill:#421F35;" d="M800.427,844.409h0.022l0.556-0.1c0.861-0.316,1.307-1.277,0.997-2.144
	c-11.14-30.6-19.909-62.338-26.081-94.334c-0.163-0.888-1.04-1.482-1.956-1.329c-0.904,0.177-1.503,1.057-1.324,1.961
	c6.194,32.16,15.012,64.072,26.212,94.846C799.093,843.967,799.725,844.409,800.427,844.409z"/>
<path style="fill:#421F35;" d="M831.923,851.765h0.011l0.452-0.071l0.991-0.831l0.109-1.269c-2.87-9.178-6.264-18.299-10.088-27.105
	c-0.375-0.849-1.383-1.239-2.201-0.868c-0.849,0.368-1.237,1.356-0.871,2.203c3.78,8.704,7.136,17.711,9.968,26.773
	C830.512,851.294,831.149,851.765,831.923,851.765z"/>
<path style="fill:#421F35;" d="M740.111,953.584l0.038,0.062l1.362,0.76l0.833-0.234l0.071-0.03c0.784-0.48,1.035-1.512,0.561-2.301
	c-8.449-13.847-18.63-26.591-30.265-37.88l-1.16-0.474h-0.016l-1.193,0.506c-0.643,0.665-0.621,1.727,0.038,2.364
	C721.835,927.481,731.836,940.004,740.111,953.584z"/>
<path style="fill:#421F35;" d="M1358.185,244.228c3.813,1.542,7.169,4.061,9.702,7.283l1.296,0.661l0.969-0.337l0.082-0.046
	l0.626-1.114l-0.349-1.234c-2.893-3.68-6.722-6.556-11.074-8.318l-1.274,0.008l-0.899,0.918l0.006,1.28L1358.185,244.228z"/>
<path style="fill:#421F35;" d="M1379.44,261.103c-2.62-2.206-5.436-2.525-7.152-0.809l-0.49,1.185l0.49,1.182l1.182,0.487h0.005
	l1.177-0.49c0.354-0.343,1.618,0.153,2.631,1.005c2.642,2.22,4.832,4.881,6.515,7.912l0.038,0.065l1.384,0.817l0.79-0.205
	l0.065-0.025c0.806-0.446,1.1-1.465,0.654-2.277C1384.849,266.57,1382.398,263.59,1379.44,261.103z"/>
<path style="fill:#421F35;" d="M1401.844,295.821l0.359-0.046l0.033-0.008l1.019-0.779l0.169-1.266
	c-1.319-4.987-4.843-9.378-9.424-11.742l-1.269-0.114l-0.992,0.836c-0.414,0.82-0.087,1.83,0.73,2.252
	c3.748,1.937,6.635,5.534,7.719,9.622c0.196,0.732,0.855,1.244,1.651,1.244H1401.844z"/>
<path style="fill:#421F35;" d="M1404.149,309.33l-1.068-0.392l-0.141,0.006l-1.144,0.591l-0.387,1.226l0.594,1.13
	c3.791,3.181,6.215,8.029,6.476,12.973c0.049,0.888,0.784,1.582,1.683,1.582l0.081-0.003c0.915-0.049,1.629-0.836,1.58-1.757
	C1411.508,318.835,1408.642,313.094,1404.149,309.33z"/>
<path style="fill:#421F35;" d="M1417.412,282.108c-0.866-0.256-1.819,0.253-2.076,1.133c-1.661,5.681-4.543,11.079-8.339,15.609
	l-0.387,1.223l0.588,1.133l1.089,0.417l1.177-0.548l0.093-0.074c4.091-4.872,7.201-10.687,8.993-16.821
	C1418.807,283.292,1418.295,282.364,1417.412,282.108z"/>
<path style="fill:#421F35;" d="M1418.23,241.69l-1.264-0.128l-1.002,0.82c-5.513,10.398-11.967,20.375-19.19,29.657l-0.343,1.234
	l0.637,1.114l1.04,0.375l1.209-0.591l0.093-0.079c7.338-9.426,13.901-19.569,19.506-30.142l0.126-1.275L1418.23,241.69z"/>
<path style="fill:#421F35;" d="M1380.295,251.928l1.013,0.349l1.226-0.621l0.098-0.082c8.835-12.002,16.194-25.095,21.865-38.912
	v-1.275l-0.91-0.91h-1.286l-0.899,0.915c-5.562,13.547-12.78,26.397-21.462,38.193l-0.311,1.25L1380.295,251.928z"/>
<path style="fill:#421F35;" d="M1322.811,301.361c-0.016,0.92,0.725,1.683,1.672,1.7c0.904,0,1.656-0.736,1.672-1.642
	c0.109-6.12-1.612-12.357-4.848-17.562c-0.485-0.781-1.503-1.027-2.304-0.539c-0.784,0.49-1.024,1.523-0.534,2.304
	C1321.363,290.284,1322.909,295.873,1322.811,301.361z"/>
<path style="fill:#421F35;" d="M1340.177,274.452c-0.24-0.88-1.16-1.411-2.048-1.177l-1.019,0.785l-0.158,1.269
	c7.37,27.121,5.698,56.441-4.712,82.555c-0.338,0.858,0.082,1.833,0.986,2.193l0.518,0.098l0.054,0.003
	c0.692,0,1.302-0.411,1.558-1.051C1346.027,332.345,1347.738,302.273,1340.177,274.452z"/>
<path style="fill:#421F35;" d="M1379.021,327.483l-1.258,0.24c-14.419,9.434-26.304,23.265-33.479,38.942l-0.044,1.277l0.932,0.962
	l0.638,0.131c0.654,0,1.253-0.381,1.525-0.975c6.907-15.108,18.363-28.439,32.258-37.536l0.725-1.059l-0.24-1.253L1379.021,327.483z
	"/>
<path style="fill:#421F35;" d="M1465.609,2065.145c-0.561-0.738-1.618-0.872-2.348-0.33c-0.735,0.555-0.888,1.607-0.332,2.345
	c6.014,7.978,11.755,16.325,17.066,24.815l0.038,0.063l1.346,0.743l0.849-0.245l0.071-0.03c0.784-0.49,1.019-1.526,0.528-2.307
	C1477.5,2081.672,1471.704,2073.245,1465.609,2065.145z"/>
<path style="fill:#421F35;" d="M1482.762,2057.214c-0.545-0.741-1.601-0.913-2.337-0.368c-0.746,0.544-0.91,1.593-0.365,2.337
	c10.78,14.802,21.315,30.066,31.305,45.364l1.367,0.779l0.877-0.259l0.071-0.033l0.724-1.065l-0.24-1.253
	C1504.148,2087.372,1493.58,2072.063,1482.762,2057.214z"/>
<path style="fill:#421F35;" d="M1544.718,2107.031c-10.845-18.553-22.813-36.747-35.581-54.072l-1.095-0.659l-1.242,0.308
	c-0.746,0.545-0.904,1.596-0.354,2.34c12.686,17.219,24.594,35.311,35.385,53.771l0.038,0.063l1.367,0.787l0.812-0.22l0.071-0.03
	C1544.915,2108.853,1545.181,2107.829,1544.718,2107.031z"/>
</svg>
